<?xml version="1.0" encoding="UTF-8" standalone="no"?>
<!-- Created with Inkscape (http://www.inkscape.org/) -->

<svg
   width="500"
   height="405"
   viewBox="0 0 132.29166 107.15625"
   version="1.1"
   id="svg1"
   inkscape:version="1.4 (e7c3feb1, 2024-10-09)"
   sodipodi:docname="icon.svg"
   xmlns:inkscape="http://www.inkscape.org/namespaces/inkscape"
   xmlns:sodipodi="http://sodipodi.sourceforge.net/DTD/sodipodi-0.dtd"
   xmlns="http://www.w3.org/2000/svg"
   xmlns:svg="http://www.w3.org/2000/svg">
  <sodipodi:namedview
     id="namedview1"
     pagecolor="#ffffff"
     bordercolor="#000000"
     borderopacity="0.25"
     inkscape:showpageshadow="2"
     inkscape:pageopacity="0.0"
     inkscape:pagecheckerboard="0"
     inkscape:deskcolor="#d1d1d1"
     inkscape:document-units="mm"
     inkscape:zoom="0.71980922"
     inkscape:cx="298.69026"
     inkscape:cy="238.9522"
     inkscape:window-width="1440"
     inkscape:window-height="771"
     inkscape:window-x="0"
     inkscape:window-y="25"
     inkscape:window-maximized="0"
     inkscape:current-layer="layer1" />
  <defs
     id="defs1" />
  <g
     inkscape:label="Livello 1"
     inkscape:groupmode="layer"
     id="layer1">
    <path
       style="fill:#0d3457;fill-opacity:1;stroke:none;stroke-width:1.02486"
       d="m 38.335257,31.594704 c -0.961319,-0.394289 -2.482411,-1.432265 -3.444752,-0.61576 -3.162073,2.682903 -4.597143,7.692492 -7.336406,10.834384 -2.493432,2.859925 -6.446032,4.623711 -8.247656,8.09661 l 6.422226,-3.567903 -1.665022,3.092181 C 30.89995,46.842319 35.555811,39.452161 42.37888,36.827628 l -0.47572,2.140741 c 2.394209,-0.813927 4.446084,-3.692421 6.180877,-5.470783 0.616906,-0.632398 1.438504,-2.053584 2.385578,-2.17139 1.592083,-0.19803 4.41941,2.485134 5.943016,3.12283 L 54.50975,33.021864 c 2.353943,-4.228136 6.012111,-8.118146 7.373665,-12.844449 L 56.888351,26.36178 65.213458,8.2844073 59.980534,15.182352 c 1.478589,-2.776377 2.871234,-6.3960787 3.330042,-9.5144077 h -0.237861 l -5.470783,9.2765477 h -0.237861 c 1.153888,-2.81254 2.490098,-5.5412457 3.704821,-8.3251067 0.442982,-1.015209 0.907952,-2.728829 2.028787,-3.186518 3.164481,-1.292197 6.108683,6.093889 7.424499,8.1815817 0.616769,0.978575 1.160359,2.158047 2.10881,2.862395 1.078653,0.801042 2.705224,1.041748 3.506231,2.183322 1.827606,2.604659 2.822296,6.509056 4.013709,9.463754 0.424,1.051526 0.825905,3.146704 1.812218,3.799158 1.173171,0.776058 4.430486,0.48139 5.847028,0.482324 l 2.24095,5.708646 1.188568,1.993733 2.992707,-0.328713 c 0.451512,1.240753 1.421171,4.044313 2.694647,4.613681 0.883367,0.39495 1.885612,-0.06929 2.735755,0.524906 1.412489,0.987241 2.665729,2.950663 3.608289,4.375821 -2.30586,-1.828645 -5.949783,-5.154136 -8.800832,-5.913651 -1.346172,-0.35862 -2.274712,1.434623 -3.567902,0.968143 -3.41066,-1.230292 -5.390689,-5.677271 -8.800827,-6.9519 -1.093475,-0.408714 -2.402976,0.527868 -3.330042,1.029256 -2.702197,1.461438 -5.465753,2.841496 -8.087246,4.445927 v 0.23786 c 2.375756,-0.77277 6.065166,-2.6323 8.562966,-2.352354 3.838755,0.430244 7.41592,3.363383 11.179428,4.255236 v 0.475719 l -4.043622,2.378602 v -0.47572 c -8.328424,1.926749 -16.678739,5.62161 -24.737458,8.489738 -2.339593,0.832671 -7.002982,3.627107 -9.479168,2.546167 -1.259598,-0.549855 -0.74882,-3.258158 -0.74882,-4.37582 h 1.1893 v -1.189302 c -1.921339,-0.0159 -8.603959,-1.415582 -9.038685,1.189302 h 0.71358 c 0,1.937012 0.830986,6.361308 -0.24447,7.987769 -0.826315,1.249681 -3.861906,1.94873 -5.226313,2.478078 v -0.237859 c 1.515585,-0.634343 4.23979,-1.671424 4.757203,-3.330043 l -3.092183,-1.665021 2.616462,-0.47572 v -0.237861 l -2.378602,-2.140742 2.854323,-0.23786 -2.854323,-2.616461 0.95144,-0.475721 -1.66502,-1.902881 1.265835,-3.178447 7.059271,-4.057567 3.567902,-1.900493 3.330043,0.335681 c -0.08139,1.890837 -0.409185,6.016116 -2.378602,6.422224 l 1.902881,0.951441 v 0.237861 l -2.140742,0.713579 1.427162,1.189302 -0.23786,0.47572 v 0.23786 l 1.189301,-0.71358 c -0.316453,1.09524 -0.682589,2.009615 -1.902881,2.140741 l -0.951441,0.713581 c 0.378396,1.197967 1.271711,1.20498 2.378602,0.95144 l -2.378602,1.902881 c 2.480543,0.922122 4.562639,-0.759565 6.897945,-1.427161 v -0.237859 l -2.616462,-1.902882 c 2.891672,1.195929 2.480452,-1.079735 0.23786,-2.140741 v -0.237861 l 1.427161,-0.237861 -1.665021,-1.66502 v -0.47572 l 0.95144,-0.475721 c -0.987862,-1.789714 -1.384213,-4.114587 -1.42716,-6.184365 l 3.330043,0.475721 v -0.23786 c -1.947532,-1.324564 -5.701485,-4.950088 -8.087248,-5.035997 -1.101173,-0.03966 -2.32965,1.577021 -3.092181,2.249581 -2.573246,2.269632 -4.800684,5.087899 -7.611526,7.067899 l -0.47572,-3.805763 h -0.47572 c -0.05022,2.432913 -0.749055,5.788449 -2.854322,7.135805 v 0.475721 h 1.902881 l -2.140742,2.140741 1.189301,0.951441 -1.665021,0.713581 c 0.324452,1.987535 2.244708,1.378686 3.567903,0.71358 -0.614878,1.393922 -1.417743,1.957882 -2.854322,2.378602 l 1.189301,1.665022 c -3.167364,-0.878991 -1.998314,2.065036 0.71358,1.42716 -0.8457,1.135506 -1.696982,1.480754 -3.092183,1.42716 l 1.427161,1.189302 v 0.23786 l -1.902881,-0.475721 -0.47572,3.092184 -1.902881,-1.189302 2.14074,-0.47572 v -0.237861 l -2.14074,-2.140742 0.95144,-0.475719 v -0.237861 l -1.66502,-1.1893 v -0.475721 c 1.523385,-0.861728 -0.224218,-4.774124 -0.237861,-6.422224 h -0.237861 l -1.665021,4.519343 0.713581,0.23786 -1.902881,1.902882 v 0.23786 h 1.902881 l -1.427161,2.378602 0.95144,0.475719 -1.902881,0.475721 c 0.276958,0.921228 0.753201,1.1865 1.665021,1.427161 v 0.237861 l -1.902881,0.237859 c 0.464897,1.565633 1.782016,1.503416 3.092182,0.951441 -0.972281,1.470112 -1.915668,3.030685 -3.805762,3.092183 0.433424,1.440371 1.609784,1.407082 2.854321,0.95144 -1.484117,1.587133 -3.079796,-0.06282 -4.043622,-1.427162 1.140991,0.284245 1.883556,-0.05006 2.616462,-0.95144 l -2.616462,-1.189301 1.42716,-0.713579 -0.95144,-0.475722 0.95144,-1.1893 -2.140742,-1.902881 1.189302,-0.237861 -2.140741,-8.562966 h -0.237861 c -0.127329,1.611116 -0.396384,3.00342 -1.427161,4.281483 v 0.23786 l 0.475721,0.713581 c -3.023116,-0.446475 -5.150806,-2.089341 -6.897945,-4.519343 2.367238,1.321834 4.564728,0.82287 6.184365,-1.427161 -2.745485,-0.354562 -5.028976,-1.654685 -6.184365,-4.281484 1.833649,1.123056 3.769332,0.523615 5.232923,-0.951441 l -4.519343,-4.043622 c 1.731091,-1.89e-4 3.851189,0.07754 4.757204,-1.665021 -3.4905,-1.295253 -5.232011,-4.547675 -5.708645,-8.087247 h 1.902881 C 17.30965,31.085041 16.232888,30.214653 15.654116,28.978242 14.593518,26.712524 14.550872,23.591597 14.54924,21.128856 h -0.237861 c -0.205245,4.780229 -1.667566,8.264879 -5.708643,10.941568 1.3686312,1.397574 3.742944,0.609082 5.232924,-0.23786 -0.857531,2.518379 -2.266277,5.373863 -4.9950638,6.184365 0.5613975,1.637836 2.6831608,1.204 4.0436228,0.95144 -1.27083,2.23047 -3.0916952,3.998001 -5.4707838,4.995064 1.0155414,1.953214 3.4286548,1.761245 5.2329238,1.189301 -1.244948,1.767343 -2.8322209,2.889368 -4.7572035,3.805763 v 0.475719 c 1.6026385,1.11354 2.8556145,1.304457 4.7572035,0.951442 -1.561785,1.917828 -3.0221311,3.239007 -5.4707841,3.805762 0.8044732,2.310761 3.4006571,2.215653 5.2329241,1.189301 -1.004242,1.395273 -2.322838,2.227218 -4.0436231,2.378601 1.502785,2.381354 4.4450181,0.125108 5.2329231,-1.66502 h 0.237861 c -0.5455,2.295502 -1.944958,2.635117 -3.374274,4.174116 -1.5526394,1.671779 -2.2781645,3.455861 -4.2372517,4.86457 1.8258833,2.457303 4.8658957,2.09022 7.1358047,0.475721 -0.678396,0.954345 -1.456457,1.703421 -2.616462,2.022363 C 9.0563097,68.094953 6.9305993,67.297598 7.4134352,69.890192 6.3644097,69.129936 6.3012018,68.69459 6.6998546,67.51159 5.6386156,66.387664 5.3980505,63.813434 5.2726937,62.278667 H 5.0348336 l -1.189301,4.995062 h 0.7135806 c -0.3541173,1.244354 -0.6001364,2.160036 -1.9028815,2.616463 l 1.6650213,0.95144 v 0.237861 l -1.9028814,0.713581 1.6650212,0.95144 -1.6650212,0.71358 0.9514407,1.665022 -1.427161,0.237861 c 0.599431,1.087058 1.5114823,0.9758 2.6164619,0.713579 -0.9273135,1.273715 -1.8258662,1.425999 -3.3300425,1.427161 0.6608669,1.243133 1.4750173,1.631681 2.8543221,1.665021 v 0.237861 L 0.99121057,78.691019 1.4669309,80.83176 c -1.15374523,0.37922 -1.16954207,1.529235 -1.32529967,2.616462 -0.3513903,2.452788 -0.07073171,5.404794 1.08743947,7.611534 h 0.2378602 l 0.2378602,-3.567911 h 0.2378602 l 1.1893008,5.232911 -1.6650212,-0.71357 1.6650212,2.3786 -2.37860175,-1.18929 v 0.23785 c 0.79807155,0.60799 1.63146415,1.69235 2.61646195,1.95665 2.3905707,0.64146 6.5041258,-1.0482 9.0386867,-1.22178 6.343715,-0.43442 12.33357,0.12215 18.553093,1.40587 v 0.23786 c -6.708298,-0.28802 -15.053333,-1.30663 -21.407416,1.42717 v 0.23786 c 5.175307,-0.96081 10.1747,0.6844 15.223052,1.42716 v 0.23785 l -12.84445,-0.23785 v 0.23785 l 6.897946,2.616474 v 0.23786 l -5.708645,-0.23786 v 0.23786 c 1.783601,0.58036 4.660061,2.72374 6.422225,2.64216 1.380145,-0.0638 3.056437,-1.49894 4.281482,-2.10752 2.414066,-1.19928 5.022003,-2.07344 7.611526,-2.811574 6.846723,-1.9516 13.247366,-1.59027 20.218116,-1.29098 v 0.23786 c -7.206083,0 -14.402812,0.70551 -21.169556,3.330054 v 0.23786 l 9.990127,-1.42716 v 0.23786 l -6.897945,2.14074 v 0.23786 l 13.795891,-1.90288 v 0.23786 c -3.225359,0.62548 -6.416288,1.42306 -9.276548,3.09219 v 0.23785 l 11.417289,-0.94207 15.936631,2.60709 v -0.23786 l -5.470783,-2.14074 v -0.23785 l 5.708643,0.71358 v -0.23787 l -9.752266,-3.09218 v -0.23785 c 6.390387,0.50432 11.287862,3.34625 17.125931,5.47077 l -2.378601,-2.85432 1.902881,-0.95144 v -0.23786 h -3.092181 v -0.23786 l 1.665021,-0.47572 v -0.23786 l -3.330043,-0.23786 1.1893,-1.42717 -2.616461,0.47574 0.475721,-1.427184 -2.140742,0.951444 v -0.475714 h -3.330042 v -0.23787 l 9.514407,-1.18929 v 0.23785 l -1.665022,0.23786 v 0.23787 h 4.995064 v 0.23785 l -3.092182,0.47573 v 0.23786 h 5.232924 v 0.237854 l -5.232924,0.71359 v 0.23786 l 3.805762,0.47572 -1.42716,0.95144 v 0.23786 c 11.803192,-2.44273 22.816748,-1.86088 34.489726,1.42717 v -0.23787 c -2.21822,-1.2898 -4.80871,-2.17448 -7.37367,-2.3786 v -0.23785 l 14.50947,2.37858 v -0.23785 C 108.92603,99.881846 99.614362,99.146986 92.567377,99.146986 v -0.23785 l 15.698773,0.95144 v -0.23786 c -8.18195,-2.6614 -16.926263,-2.85432 -25.45104,-2.85432 v -0.23787 c 8.488475,-9.4e-4 16.616225,-0.44971 24.97532,1.64007 4.93432,1.23358 9.15581,3.563894 13.79589,5.495734 l -1.18931,-2.85431 1.66503,0.23786 v -0.23786 l -4.28148,-0.71359 v -0.237854 l 3.33004,-0.71359 -4.7572,-1.18929 v -0.23787 l 6.89794,0.47573 v -0.23786 c -3.06935,-1.18405 -6.21241,-1.90252 -9.5144,-1.90289 v -0.23786 c 3.97596,-0.91368 9.23835,0.58226 13.0823,1.66503 -0.926,-1.0801 -2.18564,-1.47798 -3.5679,-1.66503 v -0.23786 c 2.62498,0 5.74518,0.76779 7.37366,-1.66501 l -0.71357,0.23785 0.47571,-1.90288 -1.90287,1.90288 -0.23787,-1.66502 c -1.82944,2.08494 -2.14701,0.8485 -2.61645,-1.42715 h -0.23787 l -0.47571,2.85432 -1.9029,-2.85432 1.18931,1.42715 h 0.23785 l 0.23787,-2.3786 c 1.34722,0.63535 1.83553,1.64285 1.90288,3.09219 h 0.23786 l 1.1893,-3.33005 0.71359,2.14074 c 3.75938,-1.34788 3.5679,-4.913566 3.5679,-8.325105 -4.46704,-0.03698 -5.90228,-2.458536 -8.92399,-5.099678 -2.15046,-1.879624 -3.54588,-2.370966 -4.39618,-5.366169 2.32087,2.449871 4.11213,4.729663 7.84938,3.330043 -2.37676,-1.608474 -3.56591,-2.714835 -3.5679,-5.708645 h 0.23786 c 0.62366,4.142344 6.17218,5.302001 8.3251,1.665022 -2.49071,-0.79671 -4.31059,-1.699486 -6.18435,-3.567903 1.77532,-0.489491 3.05238,-1.38053 3.80576,-3.092182 -3.56274,-3.92e-4 -6.57265,-1.951488 -7.13581,-5.708644 -1.51879,-0.306451 -2.5443,-1.440089 -3.09218,-2.854322 h 0.23785 c 1.71575,3.154079 6.15466,2.086743 7.61153,-0.713581 -2.86548,-0.593024 -5.52737,-2.072668 -6.89795,-4.757204 2.11871,1.398445 5.3016,0.686817 6.42223,-1.665021 -2.78023,-0.121223 -5.28971,-1.706701 -6.42223,-4.281483 1.8787,0.684712 4.21369,0.561587 5.23293,-1.42716 -1.89901,-0.898364 -3.4067,-2.264833 -4.51935,-4.043623 1.78432,-0.0011 3.19997,-0.284681 4.75722,-1.189302 v -0.47572 c -3.48429,-1.704096 -5.62634,-4.642962 -5.94651,-8.562965 h 1.90288 c -0.56638,-1.216211 -1.62008,-2.084022 -2.17011,-3.330044 -1.16091,-2.629934 -1.15993,-5.741831 -1.15993,-8.562965 h -0.23786 c -0.23242,2.944869 -0.67521,6.40404 -2.54049,8.799912 -0.97105,1.247285 -2.40559,1.914277 -3.40602,3.093097 1.82609,0.770555 3.54184,0.48554 5.23292,-0.475722 -0.54319,3.15466 -2.57952,5.32729 -5.23292,6.897945 1.402,1.131339 2.8955,0.990472 4.51934,0.475722 -1.63549,2.394948 -3.46344,4.006165 -5.9465,5.470783 1.39031,1.841485 3.43812,1.833646 5.47078,1.189301 -4.30125,7.440287 -10.37615,0.14313 -14.98518,-2.711722 -1.05259,-0.651973 -2.678365,0.11507 -3.542946,-0.734318 -1.096554,-1.077282 -1.161615,-3.003863 -2.3173,-4.021962 -1.013831,-0.893137 -2.549375,0.346228 -3.459621,-0.695775 -1.549104,-1.773317 -1.269556,-5.04928 -2.977289,-6.678813 C 87.259243,27.381114 84.105571,29.320355 82.77785,27.515846 80.313092,24.165994 80.236823,19.056943 78.169129,15.442417 76.743012,12.949444 73.43532,12.210726 71.946958,9.4737083 70.735605,7.2460923 69.50262,5.0312513 68.272604,2.8136243 67.833889,2.0226543 67.450532,0.73775427 66.562433,0.34068427 c -1.069356,-0.478108 -5.023352,-0.545761 -5.78463,0.407813 C 57.200045,5.2299783 56.361409,11.79577 52.852804,16.336418 c -0.911161,1.179175 -2.40598,0.220562 -3.346194,1.130199 -1.810736,1.751845 -2.02265,4.96912 -3.577444,6.916665 -0.689383,0.863521 -1.950682,0.343761 -2.815233,0.93272 -1.801685,1.227375 -3.814538,4.342742 -4.778676,6.278702 m 18.315234,4.281483 c 4.252193,-2.995305 7.667027,-8.035068 11.139228,-11.893008 0.839813,-0.933113 2.720497,-3.977298 4.084738,-3.934057 1.5493,0.04912 3.572425,2.513211 4.994149,3.220476 -0.886989,-2.098161 -2.755246,-4.02565 -4.26955,-5.70773 -0.461529,-0.512667 -1.093803,-1.482779 -1.896827,-1.386227 -1.479984,0.177945 -3.118322,3.59844 -3.924693,4.715355 -3.299838,4.570621 -8.179595,9.665974 -10.127045,14.985191 M 51.655428,19.225976 c -1.159971,4.241057 -3.72724,9.324135 -7.373666,11.893008 l 0.475721,-1.902882 -5.809588,6.264939 -2.981879,-0.01357 -4.528704,4.452349 4.281483,-7.135804 c 0.855326,0.203162 1.970927,0.974322 2.832851,0.894182 1.854272,-0.172407 3.919876,-4.797657 5.20796,-6.060853 1.093937,-1.072803 2.580208,-0.523718 3.424931,-1.973722 1.125618,-1.932179 1.880709,-6.331575 4.470891,-6.417636 m 6.184364,24.261736 c 4.174095,-1.582081 8.216854,-5.321685 11.893008,-7.855439 1.206992,-0.831908 2.623046,-2.277986 4.043623,-2.686025 0.913898,-0.262502 1.705678,0.507617 2.616463,0.334209 0.768319,-0.146282 1.32714,-0.868914 2.14074,-0.846267 2.439462,0.06792 5.000697,2.758395 7.373666,3.441997 v -0.23786 L 80.198648,30.338416 77.82353,28.938237 75.679305,31.11899 c -0.923602,-0.923603 -2.632548,-3.416671 -4.043623,-3.416671 -1.463667,0 -3.020791,2.662135 -3.870186,3.654531 -3.311219,3.868682 -7.396719,7.692172 -9.925704,12.130868 m -13.082309,-14.50947 0.23786,0.23786 -0.23786,-0.23786 m -31.635404,9.752267 -0.23786,0.23786 0.23786,-0.23786 m 96.571231,11.893009 v -0.23786 l -3.09218,-1.902882 v -0.23786 l 9.5144,0.951441 c -0.98846,2.551472 -3.26627,3.410108 -5.70863,4.043623 1.73618,2.25806 3.26266,2.192526 5.70863,1.1893 -0.8303,1.742591 -2.68182,2.466181 -4.51934,2.616462 2.38077,1.814752 4.31139,0.295417 5.70864,-1.90288 h 0.23787 c -0.56115,2.682757 -2.07564,2.973432 -3.65417,4.810425 -1.49796,1.743229 -2.18213,3.892144 -4.43308,4.941841 2.54384,2.411601 4.73405,2.053577 7.61152,0.475721 -1.47416,3.152155 -4.93071,1.174797 -6.42222,3.567902 l -1.42717,-0.71358 1.66503,-0.713581 v -0.237861 l -2.37861,-2.140741 0.71358,-2.854321 -1.42715,-0.713581 -0.47572,-5.946505 h -0.23786 c -0.0726,1.690652 -0.20156,6.762175 -1.90289,6.897945 v 0.237861 l 0.71358,0.47572 c -2.20187,0.585461 -2.81586,-1.10893 -1.42715,-2.616462 L 102.5575,59.18649 c 1.529,-1.409711 -0.19783,-5.196876 -0.23786,-7.135805 h -0.23786 c -0.41082,1.705816 -0.17478,4.040174 -1.90288,4.995063 v 0.475722 l 1.1893,0.237858 c -0.32268,1.14 -1.05526,1.719893 -2.140738,2.140743 v 0.475719 l 2.378598,-0.237859 c -0.2205,1.464537 -0.82286,2.613573 -2.378598,2.854322 l 1.902888,0.475721 v 0.237859 l -1.427168,0.713582 -8.496344,-11.893009 -4.110245,-6.184365 7.135806,-2.208279 4.995063,2.022726 10.465848,4.467036 M 85.907292,46.579896 c 4.676383,7.576566 10.389084,14.716783 15.671248,21.883135 1.55261,2.10645 5.60317,5.879685 5.49831,8.562966 h -0.47572 L 85.669432,47.769196 h -0.23786 C 79.789079,55.874654 71.788243,62.671881 65.3144,70.128052 c -1.540423,1.774166 -3.174273,3.46503 -4.721228,5.232742 -0.391467,0.447331 -1.216465,1.621504 -1.950236,1.345121 -1.079154,-0.406477 2.316593,-3.712695 2.764759,-4.199261 l -8.087246,0.46526 -3.805763,-0.681649 -3.330042,0.8984 -9.276548,0.09673 -8.325105,0.886285 4.519343,-0.741658 10.227987,-0.963737 8.087246,-1.135898 8.087245,0.0083 3.207629,-0.316959 5.126842,-5.412975 12.575935,-13.558029 5.492074,-5.470784 m -35.916886,5.708602 v 0.23786 h -1.902881 v 0.951468 h 0.951441 v 0.23786 l -0.951441,0.237861 v 0.95144 l 0.951441,0.23786 v 0.23786 l -1.189302,0.23786 v 0.237861 l 1.427161,0.23786 v 0.23786 h -1.427161 v 0.23786 h 1.189302 l -0.951441,0.47572 -0.475721,1.427162 -0.237859,-6.422225 2.616461,0.23786 m 30.683963,2.616462 0.237859,0.951441 h -1.1893 l 0.951441,-0.951441 M 64.262016,58.710764 68.5435,57.283603 v 0.237861 l -5.232924,2.616461 v -1.427161 l -6.897945,-1.427161 c 1.401402,-0.502638 6.9876,0.207192 7.849385,1.427161 m -14.03375,-1.1893 4.995064,8.325105 c -2.588399,-0.852421 -3.33916,-5.251768 -5.470783,-6.897945 l -3.330044,7.849386 h -0.237859 l 3.567903,-9.276546 h 0.475719 m -27.116059,0.237858 c 0.110385,1.305873 -0.74281,1.795915 -1.902882,2.140743 v 0.23786 l 2.140742,0.713581 c -0.591864,1.257701 -1.476464,1.827446 -2.854323,1.902881 0.961562,1.120639 1.706393,1.056825 3.092183,0.95144 l -2.854322,0.951441 -2.341346,-3.468426 -2.891578,-3.191659 h 0.23786 c 1.992083,2.493358 5.006077,2.324857 6.897945,-0.237861 h 0.475721 m 61.130064,2.140743 h -8.325106 c 2.037796,-2.977906 6.38328,-3.115767 8.325106,0 m -36.868326,0.475719 v 0.237861 l -2.378602,0.71358 2.378602,-0.951441 m 18.790954,1.189302 c -1.302353,1.843735 -3.888806,4.485916 -5.946505,5.467662 -1.895804,0.904505 -4.83282,0.559757 -6.897945,0.757076 -5.051561,0.482681 -10.154161,1.169151 -15.223052,1.386788 l 4.519344,-3.567903 -2.378602,2.616462 10.465848,-0.704217 8.087245,-0.720737 7.373667,-5.235131 m 10.227987,0.47572 v 2.854322 h -4.995065 c 1.048855,-2.249176 2.689465,-2.854322 4.995065,-2.854322 m 7.135804,0 v 8.325107 h -4.995064 v -8.325107 h 4.995064 m 2.378602,0 1.902882,2.854322 h -2.140742 l 0.23786,-2.854322 m -35.203305,0.237861 1.90288,3.805762 -4.043622,0.23786 1.665021,-4.043622 h 0.475721 m 28.305361,0.47572 v 2.378601 h 1.90288 c -1.88e-4,-1.721284 0.03807,-2.601763 -1.90288,-2.378601 m 2.378601,0 v 2.378601 h 1.665022 v -2.378601 h -1.665022 m -30.921822,0.23786 -0.475721,1.189301 h 1.1893 l -0.713579,-1.189301 m 68.979443,0.475721 c 1.54209,2.426401 3.4766,3.019651 5.70865,4.519342 -2.61371,0.772575 -6.88547,-1.229602 -5.70865,-4.519342 M 15.976401,63.943687 c 1.25568,2.172086 3.130056,2.922556 5.232924,4.043623 -2.29902,1.375014 -6.278248,-1.359014 -5.232924,-4.043623 m 4.519343,0 0.237861,0.237861 -0.237861,-0.237861 m 85.867516,0 c -0.44432,0.844184 -1.22717,1.397305 -1.90287,0.475722 l 1.90287,-0.475722 m -57.086435,1.902882 2.854323,-0.23786 c -0.788889,-1.286063 -2.325645,-1.200037 -2.854323,0.23786 m 53.042815,-1.189301 c -0.39766,0.805442 -0.75975,1.149464 -1.66502,1.189301 l 1.66502,-1.189301 m -69.455166,0.23786 2.378602,0.47572 -1.189301,1.189301 h -0.237861 l -0.95144,-1.665021 m -9.276547,0.713581 -0.713581,0.47572 0.713581,-0.47572 m 80.396743,0 2.37859,0.23786 c -0.61277,0.970169 -2.2803,1.201307 -2.37859,-0.23786 m -24.975322,0.23786 v 1.665021 h 1.90288 v -1.665021 h -1.90288 m 2.378601,0 v 1.665021 h 1.665022 v -1.665021 h -1.665022 m -4.995063,1.189302 -0.244466,2.472938 -2.371997,0.381383 h -6.897944 c 1.776975,-3.810569 6.021757,-2.854321 9.514407,-2.854321 m 15.22305,2.61646 c -1.187022,0 -4.928775,0.832801 -5.702039,-0.143522 -0.461092,-0.582172 -0.244465,-1.776636 -0.244465,-2.472938 2.91812,0 4.291594,-0.041 5.946504,2.61646 M 79.009348,67.98731 v 1.665021 h 1.90288 V 67.98731 h -1.90288 m 2.378601,0 v 1.665021 h 1.665022 V 67.98731 h -1.665022 m -57.800022,0.475721 -0.951441,0.713581 v -0.237861 l 0.951441,-0.47572 m 79.921023,0 3.5679,0.47572 v 0.237861 c -1.01989,0.49081 -3.45292,0.969994 -3.5679,-0.713581 m -83.726786,2.14074 c 1.222307,3.497812 3.991094,3.853267 7.135806,2.854323 -1.712963,4.326838 -8.863045,1.271138 -7.135806,-2.854323 m 8.800827,0.237861 -1.189302,1.189301 -0.237859,-0.95144 1.427161,-0.237861 m -16.412352,0.237861 c -1.036926,1.993326 -2.9425448,2.736031 -4.9950641,3.330042 2.709076,2.286269 4.1989551,0.775158 6.6600851,-0.951441 -0.588378,1.999512 -1.888279,2.348914 -3.211479,3.68573 -1.78233,1.800676 -2.1137221,4.058692 -4.875767,4.877237 2.1447548,1.925071 3.975375,1.980987 6.660085,1.427161 -2.198944,2.558303 -6.6152013,1.64016 -8.087246,-1.189301 C 6.7643302,80.831636 8.5228,79.476956 10.029897,77.025997 7.80459,76.844234 6.1655712,75.920457 5.5105539,73.695955 8.1888563,73.673785 9.9719814,72.436301 12.170639,71.079493 m 64.222247,1.427161 h 9.276546 v -0.951441 c 3.357423,0 7.958073,-1.120806 9.276546,2.854322 l -32.586843,0.47572 c 2.090343,-4.029482 6.140092,-3.073794 9.990128,-3.092363 1.299758,-0.0063 3.520922,-0.861104 4.043623,0.713762 m 39.009074,-0.951441 c -0.92217,1.97619 -2.95358,2.903044 -4.99506,3.330042 2.12642,2.539496 4.82794,1.669537 6.66007,-0.713581 h 0.23786 c -0.38221,2.110153 -1.94514,2.461717 -3.21148,3.870919 -1.86269,2.072828 -2.30381,4.508819 -5.35148,5.405629 2.26459,2.146868 4.24957,2.037752 7.1358,1.66502 -2.4684,2.879155 -7.03204,1.501086 -8.80082,-1.427161 2.73716,-1.297283 5.21137,-3.05805 6.42222,-5.946504 -2.27088,-0.01905 -4.28836,-0.907016 -4.7572,-3.330042 2.63037,-0.339695 4.48763,-1.423524 6.66009,-2.854322 m -99.425559,1.189301 c 1.562994,2.288163 3.161533,3.322363 5.946504,3.330042 l -1.665021,0.71358 c 0.826909,1.593993 2.168945,2.643881 3.805763,3.330043 v 0.23786 C 21.88999,80.133394 21.174563,78.685487 19.659931,77.397843 18.226693,76.17939 15.197427,75.386062 15.976401,72.744514 m 64.935827,5.232924 c -0.557716,1.680395 -4.447806,0.95144 -5.946504,0.95144 l -0.237859,-1.189301 -8.800827,0.237861 v 0.95144 c -1.869361,0 -6.611872,0.861415 -7.611526,-0.95144 1.345335,-0.04079 1.988043,-1.296371 3.330043,-1.413209 8.482697,-0.738587 17.408601,-0.251812 25.926758,-0.251812 2.378233,0 4.757697,0.02248 7.135806,-9.15e-4 0.758382,-0.0075 1.907846,-0.278047 2.367408,0.521045 1.08494,1.886534 -2.369332,1.893394 -3.317934,1.853883 -0.956668,-0.03985 -1.683416,-0.618169 -2.620861,-0.69523 -3.360748,-0.276245 -6.851539,-0.01377 -10.224504,-0.01377 m -35.679026,0.237859 v 0.237861 l -5.470784,0.237861 v 9.276545 h -1.665021 v -0.95144 l 1.189301,-0.47572 -1.189301,0.23786 c 0.15566,-0.726408 0.477292,-0.6983 1.189301,-0.713581 v -0.475719 h -1.189301 v -0.713581 h 1.427162 v -1.189302 l -3.092183,-0.237859 -0.23786,8.087252 h -0.23786 v -8.562973 h 3.567903 v -0.23786 l -3.805764,-0.47572 v 9.514413 h -0.475719 v -9.990134 l 4.281483,-0.23786 V 81.307479 L 28.10727,80.5939 V 80.356039 H 39.286698 V 79.88032 L 28.345131,79.642459 v -0.23786 l 11.179428,-0.237861 c 0.550752,-1.659373 4.235353,-0.951441 5.708643,-0.951441 m 60.178628,0 1.66502,1.427162 c -0.88498,-0.04848 -2.28779,-0.310464 -1.66502,-1.427162 m -13.082313,1.427162 h 2.378602 c 0.467888,7.83e-4 0.961211,-0.03264 1.423488,0.05433 3.781629,0.711448 -1.705425,4.995065 -3.557624,2.656474 -0.493541,-0.623153 -0.244466,-1.962712 -0.244466,-2.710802 m -28.543221,0.305767 c 2.214667,-0.256872 3.185518,2.88441 1.175357,3.226901 -1.570525,0.267579 -4.382752,0.389833 -5.91017,-0.06792 -1.087673,-0.325954 -1.556163,-1.786985 -0.632825,-2.574614 1.104339,-0.942026 3.965339,-0.421722 5.367638,-0.584372 m 17.125932,-0.06791 v 3.092181 h -5.946504 v -3.092181 h 5.946504 m 9.514407,0 v 5.946513 l -0.244466,2.235078 -3.323437,0.381372 -3.662238,-0.244451 -0.381384,-2.134139 v -6.184363 h 7.611525 m -46.382734,0.475719 v 6.422225 l -2.854321,-0.23786 v -6.184365 h 2.854321 m 6.897946,0.237861 v 0.23786 l -4.995064,0.23786 c 0.27266,-1.272379 3.967172,-0.851456 4.995064,-0.47572 m 32.586843,0 v 2.378601 h 3.092184 V 80.593903 H 83.52869 m 3.567903,0 v 2.378601 h 2.616462 v -2.378601 h -2.616462 m -45.431294,0.23786 c 0,1.113438 -0.271453,2.381781 0.713581,3.092182 l 0.237861,-3.092182 h -0.951442 m 1.189302,0 v 3.092182 c 1.341273,-0.445175 1.34128,-2.647007 0,-3.092182 m -8.087247,0.47572 c 0.794177,2.686801 0.551806,7.794293 -0.237859,10.465843 h -0.23786 l 0.23786,-7.373661 -6.184364,-0.47572 v -0.237861 h 6.184364 l 0.237859,-2.378601 m 21.169557,1.189297 h -9.990128 v -0.95144 h 7.373666 c 1.079999,7.2e-5 2.222771,-0.234724 2.616462,0.95144 M 18.592863,81.7832 c 1.392852,1.249421 2.671218,1.659926 4.519344,1.665022 v 0.47572 c -1.435336,0.18124 -5.163335,0.31948 -4.519344,-2.140742 m 49.712776,0.475721 v 4.043623 h -0.23786 l 0.23786,-4.043623 m -18.790953,1.42716 v 0.237861 l -3.330042,0.47572 h -0.237861 v -0.95144 l 3.567903,0.237859 m 73.260934,-0.237859 c 1.73519,2.257037 3.72746,2.616461 6.42223,2.616461 v 0.237861 c -2.06658,0.655102 -7.1495,0.678055 -6.42223,-2.854322 m -39.24693,0.237859 v 1.902883 h 3.092184 V 83.686081 H 83.52869 m 3.567903,0 v 1.902883 h 2.616462 v -1.902883 h -2.616462 m 5.232924,2.854323 v -2.854323 c 1.246915,0 3.648505,-0.456941 4.65314,0.41442 0.757388,0.656909 0.391356,1.750524 -0.397534,2.195437 -1.087939,0.61356 -3.03854,0.244466 -4.255606,0.244466 m -11.417289,0.47572 -5.946504,0.23786 c -0.01502,-0.727037 -0.451511,-2.097942 0.01009,-2.710799 0.528122,-0.701167 5.121542,-0.958046 5.691949,-0.237859 0.493525,0.623134 0.244465,1.962724 0.244465,2.710798 M 41.665299,84.161802 v 1.902881 h 0.713581 v -1.902881 h -0.713581 m 1.189302,0 v 1.902881 h 0.951441 c -0.01108,-0.935877 0.01094,-1.583459 -0.951441,-1.902881 m 21.878548,0.08185 c 1.638351,-0.05297 1.693788,2.963292 0.228504,3.212949 -1.507445,0.256834 -4.728741,0.47944 -6.144542,-0.108288 -0.989412,-0.410725 -1.22009,-1.833676 -0.398453,-2.534241 1.164018,-0.99249 4.812367,-0.521865 6.314491,-0.57042 m -18.548505,0.393862 5.470784,0.23786 v 0.237859 h -5.470784 v 0.713581 c 2.414456,0.0067 4.975841,0.124723 7.373664,0.407814 1.109348,0.130972 2.138402,-0.16991 2.616462,1.019347 l -10.227987,-0.475718 0.237861,-2.140741 m -25.6889,0.951441 c 2.854452,1.943604 4.069244,1.934921 7.373666,1.66502 v 0.237861 c -2.155575,1.253388 -7.412417,2.085758 -7.373666,-1.902881 m 13.08231,0 -0.47572,5.946509 h -0.23786 v -5.47079 h -0.475721 v 5.47079 h -0.237861 v -3.330049 h -0.237858 l -0.237861,3.330049 h -0.237861 v -5.946509 h 2.140742 m 53.518539,0.475719 v 1.665021 h 2.616462 v -1.42716 l -2.616462,-0.237861 m -3.567903,0.237861 v 1.42716 h 3.092184 V 86.302544 H 83.52869 m -76.5909752,0.71358 c -1.4392162,2.069402 -2.3381173,3.683392 -2.854322,6.184372 -1.6284459,-1.04372 -0.9198477,-4.31439 -0.7135805,-5.946512 h 0.4757203 v 2.616462 l 3.0921822,-2.854322 m 60.6543442,0.23786 v 0.47572 h -0.71358 v -0.47572 h 0.71358 m 3.805762,0.237861 v 0.237859 l -2.854321,-0.47572 2.854321,0.237861 m 3.567903,3.330041 v -2.616462 l 5.946504,-0.23786 v 2.378612 l 11.417289,-0.23787 v -2.378602 c 1.194708,-0.152175 2.881021,-0.541892 4.029678,-0.0613 0.84774,0.354687 1.307876,1.597432 0.41405,2.195442 -1.37285,0.91849 -4.728575,0.44618 -6.34661,0.48582 -5.157372,0.12635 -10.286558,0.47223 -15.460911,0.47223 M 51.417567,87.967568 v 0.23786 h -5.470784 v -0.47572 l 5.470784,0.23786 m -44.7177124,0.475718 -0.4757203,2.85432 4.2814837,-2.14074 -2.8543227,2.61647 3.3300417,-0.47573 v 0.23786 l -4.2814824,2.14075 0.9514407,-1.90288 -2.1407414,2.3786 H 5.2726937 c 0.00124,-1.87791 0.026879,-4.30682 1.4271609,-5.70865 m 42.3391114,0.71358 v 0.23787 l -10.941569,-0.47573 v -0.47572 l 10.941569,0.71358 m 16.888072,2.14074 c -1.117677,0.048 -2.206508,0.23606 -3.330042,0.23786 h -2.140742 c -1.03343,-0.002 -3.675876,-0.6658 -2.201125,-2.23599 1.085008,-1.155222 4.111621,-0.56842 5.531167,-0.62769 0.544092,-0.0228 1.481756,-0.324824 1.896276,0.16225 0.469456,0.55162 0.244466,1.78937 0.244466,2.46357 m 2.378601,-2.3786 v 3.80576 l 1.902882,0.23786 v 0.23787 c -2.68561,-0.002 -2.892563,-1.98723 -1.902882,-4.28149 m -12.130869,2.85433 c -4.337688,-0.34234 -8.73031,-0.89359 -13.082309,-0.95236 -1.327797,-0.0179 -4.151563,0.15751 -4.995064,-0.95052 4.526033,0 9.040135,0.28725 13.558031,0.48508 1.502167,0.0657 3.92843,-0.18937 4.519342,1.4178 m 50.90208,-1.66502 -1.42717,5.70864 -3.5679,-4.04362 2.85432,1.90288 v -1.1893 h 0.23786 v 1.90288 h 0.23787 c 0.13172,-1.50864 0.623,-3.15796 1.66502,-4.28148 m -59.227186,1.66502 v 0.23785 l -9.752267,-0.71358 v -0.47571 l 9.752267,0.95144 m 60.416486,-0.71358 -0.47572,3.09218 4.51934,-2.14075 v 0.23786 l -5.23292,3.56791 1.1893,-4.7572 m -33.300426,2.61646 c -0.399544,-2.57706 3.48232,-1.57208 5.232924,-1.80194 4.067084,-0.53401 8.279521,-0.14714 12.368729,-0.53628 0.913462,-0.0869 3.641276,-0.47046 4.260926,0.36358 0.582296,0.78375 -0.946831,1.1203 -1.406785,1.18947 -2.048257,0.30808 -4.347525,0.20924 -6.422044,0.30009 -1.916891,0.0839 -3.796595,0.0249 -5.708643,0.20684 -2.711242,0.25801 -5.601889,0.27824 -8.325107,0.27824 m 47.334176,-0.23786 -1.66502,-1.90289 c 1.01571,0.29899 1.42308,0.88884 1.66502,1.90289 m -21.88313,-1.66502 1.66501,2.14074 -1.66501,-2.14074 m -35.455117,0.81672 c 0.894457,0.0368 1.291876,1.22361 0.414048,1.65621 -1.196545,0.58968 -5.550712,0.78638 -6.785991,0.23787 -1.039451,-0.46157 -0.345383,-1.33086 0.44397,-1.49562 1.828493,-0.38167 4.067193,-0.475 5.927973,-0.39846 m 47.110257,0.8483 -1.90288,1.90288 1.90288,-1.90288 m 2.61647,0.23786 v 0.23786 l -2.85433,1.42716 2.85433,-1.66502 m -40.674097,1.66502 v 0.23785 l -7.611525,0.23787 7.611525,-0.47572 m 6.897945,8.800834 v 0.23786 l 19.028814,0.23786 c -1.404636,-0.85793 -3.385994,-0.96831 -4.995064,-1.18931 -4.676078,-0.64224 -9.436533,-0.23478 -14.03375,0.71359 z"
       id="path1" />
  </g>
</svg>
