<?xml version="1.0" encoding="UTF-8" standalone="no"?>
<svg
   width="40"
   height="59.428"
   version="1.1"
   id="svg1"
   sodipodi:docname="pattern.svg"
   inkscape:version="1.4 (e7c3feb1, 2024-10-09)"
   xmlns:inkscape="http://www.inkscape.org/namespaces/inkscape"
   xmlns:sodipodi="http://sodipodi.sourceforge.net/DTD/sodipodi-0.dtd"
   xmlns="http://www.w3.org/2000/svg"
   xmlns:svg="http://www.w3.org/2000/svg">
  <defs
     id="defs1" />
  <sodipodi:namedview
     id="namedview1"
     pagecolor="#ffffff"
     bordercolor="#000000"
     borderopacity="0.25"
     inkscape:showpageshadow="2"
     inkscape:pageopacity="0.0"
     inkscape:pagecheckerboard="0"
     inkscape:deskcolor="#d1d1d1"
     inkscape:zoom="6.7251303"
     inkscape:cx="16.430908"
     inkscape:cy="37.025305"
     inkscape:window-width="1440"
     inkscape:window-height="771"
     inkscape:window-x="0"
     inkscape:window-y="25"
     inkscape:window-maximized="1"
     inkscape:current-layer="svg1" />
  <path
     fill="none"
     stroke="#ffffff08"
     stroke-linecap="square"
     d="M0 70.975V47.881m20-1.692L8.535 52.808v13.239L20 72.667l11.465-6.62V52.808zm0-32.95 11.465-6.62V-6.619L20-13.24 8.535-6.619V6.619L20 13.24m8.535 4.927v13.238L40 38.024l11.465-6.62V18.166L40 11.546zM20 36.333 0 47.88m0 0v23.094m0 0 20 11.548 20-11.548V47.88m0 0L20 36.333m0 0 20 11.549M0 11.547l-11.465 6.619v13.239L0 38.025l11.465-6.62v-13.24L0 11.548v-23.094l20-11.547 20 11.547v23.094M20 36.333V13.24"
     id="path1"
     style="stroke:#ffffff;stroke-opacity:0.06" />
</svg>
